<svg width="44" height="44" viewBox="0 0 44 44" fill="none" xmlns="http://www.w3.org/2000/svg">
<path d="M15 16C14.7348 16 14.4804 15.8946 14.2929 15.7071C14.1054 15.5196 14 15.2652 14 15C14 14.7348 14.1054 14.4804 14.2929 14.2929C14.4804 14.1054 14.7348 14 15 14C15.2652 14 15.5196 14.1054 15.7071 14.2929C15.8946 14.4804 16 14.7348 16 15C16 15.2652 15.8946 15.5196 15.7071 15.7071C15.5196 15.8946 15.2652 16 15 16ZM29 16C28.7348 16 28.4804 15.8946 28.2929 15.7071C28.1054 15.5196 28 15.2652 28 15C28 14.7348 28.1054 14.4804 28.2929 14.2929C28.4804 14.1054 28.7348 14 29 14C29.2652 14 29.5196 14.1054 29.7071 14.2929C29.8946 14.4804 30 14.7348 30 15C30 15.2652 29.8946 15.5196 29.7071 15.7071C29.5196 15.8946 29.2652 16 29 16Z" fill="white" stroke="white" stroke-width="4" stroke-linecap="round" stroke-linejoin="round"/>
<path d="M22 42C33.046 42 42 33.046 42 22C42 10.954 33.046 2 22 2C10.954 2 2 10.954 2 22C2 33.046 10.954 42 22 42Z" stroke="white" stroke-width="4" stroke-linecap="round" stroke-linejoin="round"/>
<path d="M13 29C13 29 16 25 22 25C28 25 31 29 31 29" stroke="white" stroke-width="4" stroke-linecap="round" stroke-linejoin="round"/>
</svg>
